<svg enable-background="new 0 0 800 423" viewBox="0 0 800 423" xmlns="http://www.w3.org/2000/svg"><path d="m1.000001 292c-.000001-96.969971-.000001-193.939941-.000001-290.954955h800c0 96.645438 0 193.336318-.453186 290.624297-1.618591.623505-2.783936.672974-3.949341.672974-263.546814.003418-527.093597.003997-790.640379-.010895-1.65237-.000092-3.304729-.216217-4.957093-.331421m238.254027-69.872406c.136414 1.15451.244248 2.313217.413651 3.46286 1.755081 11.911347 10.188904 19.135742 21.406906 18.348618 10.410767-.730484 17.898285-9.360184 17.911255-20.868988.035797-31.828171.167602-63.657547-.049256-95.484337-.212493-31.188965-24.566207-57.971672-55.677764-59.132538-32.449891-1.210793-64.980011-.503487-97.471703-.232849-11.049927.092033-18.851608 8.973396-18.795494 19.933601.060173 11.753792 8.660393 19.633469 21.735504 19.661064 29.82843.06295 59.657547-.071434 89.485458.070404 15.03209.07148 24.493271 13.358223 20.029297 28.283623-1.841751 0-3.814941-.000015-5.788131.000015-27.162339.000245-54.324952-.062515-81.486725.061539-4.63086.021134-9.32872.4767-13.874878 1.355911-21.120171 4.08458-44.335861 24.622132-42.366448 56.275742 1.46801 23.594696 20.314736 46.371185 43.739708 48.911911 16.146897 1.751358 32.575592 1.085449 48.879578 1.141815 10.365631.035843 18.952728-8.818787 19.290741-19.165893.323868-9.91417-7.240646-19.128876-17.427261-19.73169-12.949952-.766312-25.962113-.428924-38.940674-.802719-3.07074-.08844-6.439835-.479279-9.103424-1.841827-5.693863-2.91272-8.189011-9.769379-6.503128-15.814515 1.84436-6.613479 6.872314-10.581527 13.960235-10.596633 28.995239-.061738 57.990662-.034852 86.986008-.0085 1.102676.001007 2.205063.332993 3.642609.564759 0 15.053955 0 29.86705.003936 45.608627m174.245972-17.833115c-17.999481-.000305-35.999237.050263-53.998047-.061508-2.409912-.014969-5.61615-.05841-7.033203-1.49237-2.101593-2.126648-4.075928-5.516663-4.053955-8.353028.038483-4.972259 4.150085-7.192123 8.703552-8.213516 31.64032-7.097336 63.249512-14.337631 94.931976-21.241592 26.329987-5.737595 42.505524-26.211243 40.867554-52.352463-1.372894-21.910736-19.910644-41.555771-41.760528-43.584137-9.588044-.890076-19.280396-.850762-28.926575-.884552-29.332886-.102753-58.666534-.097229-87.999512-.007187-13.779846.04229-22.818115 11.003189-20.231903 24.212891 1.842041 9.408622 10.175873 15.482299 21.582886 15.500183 30.166473.047302 60.333099.013023 90.499664.019386 6.332916.001328 12.669068-.080162 18.99765.095749 4.916443.136673 7.622834 3.127357 8.300171 7.776016.662812 4.548897-1.493622 7.679909-5.75177 9.310722-1.235077.473031-2.546661.765748-3.841553 1.060395-32.105377 7.305404-64.263061 14.388885-96.305053 21.962005-26.474396 6.257203-42.068177 29.489762-38.277985 56.095932 3.067566 21.533539 24.071869 39.576584 47.322968 39.765793 37.330658.303787 74.665771.145752 111.998657.050003 11.036682-.028305 19.428589-8.466781 19.582947-19.174789.162719-11.287216-7.624848-19.69278-19.134827-19.938034-18.153351-.386765-36.314972-.383438-55.473114-.545899m211.585266-136.051239c-27.329346-.05426-54.658996-.205597-81.987915-.11795-11.963135.038361-20.12677 8.245651-20.191589 20.1493-.122437 22.496749-.070496 44.994773.016235 67.491859.009461 2.448822.325378 5.045181 1.181763 7.315643 3.28717 8.715027 12.379333 14.044297 21.022766 12.624955 9.982361-1.639176 16.805908-9.177521 16.928833-19.251526.174927-14.32959.051697-28.662728.079834-42.994309.003479-1.762039.154297-3.523781.252746-5.624748 18.892457 0 37.222352.463089 55.519654-.111687 25.587036-.803779 47.017395 19.409127 49.523742 43.395859 1.881775 18.00975-7.56549 37.396622-23.152404 46.492523-10.28949 6.004517-21.30243 7.104721-32.701111 7.12172-22.33075.033309-44.661987-.056305-66.991944.082122-3.42456.02121-7.116027.338623-10.212646 1.640412-8.619934 3.623794-13.099243 13.061584-11.190796 22.275573 1.755859 8.477753 10.026978 15.192994 19.273193 15.224854 25.996705.089569 51.995728.218872 77.990357-.03035 23.348511-.223861 43.527405-8.648636 60.297424-24.929001 38.251892-37.13507 34.843628-99.107116-7.049621-132.061126-14.081849-11.076989-30.132874-16.671036-48.608521-18.694123z" fill="#e5280e"/><path d="m1.000001 292.468628c1.652364-.353424 3.304723-.137299 4.957093-.137207 263.546782.014892 527.093565.014313 790.640379.010895 1.165405 0 2.33075-.049469 3.949341-.209076.453186 43.848663.453186 87.830597.453186 131.810486-266.666687-.002015-533.333344-.002015-800-.002015 0-43.707 0-87.355712.000001-131.473083m373.922454 75.007782c.012024 3.328369-.485321 6.774109.243622 9.937256.384185 1.667084 2.904876 3.924316 4.468414 3.930237 1.539276.005798 4.145538-2.316163 4.421875-3.934662.662994-3.882965.239655-7.952393.243835-11.946595.005738-5.485473.001435-10.970977.001435-16.456451 2.813751 3.211609 4.279632 6.668152 6.039093 9.968201 2.091125 3.922088 2.705627 9.5354 8.85971 9.442566 6.106659-.092102 6.616822-5.74112 8.721253-9.650269 1.829346-3.398071 3.35199-6.961243 5.010162-10.451477.937226 9.177857 1.01944 18.080322.897614 26.97995-.050263 3.670044.808136 6.409546 5.055298 6.316925 3.962341-.086395 4.765075-2.817627 4.753326-6.197143-.045105-12.981507-.015808-25.963257-.017395-38.944916-.000397-3.047608.201935-6.290894-3.916931-6.926544-3.868683-.596985-6.818176.73114-8.521668 4.466033-2.961914 6.494141-5.989746 12.958283-8.994934 19.432648-.907745 1.955628-1.832061 3.903504-3.048797 6.493622-.781952-1.513245-1.09964-2.076355-1.371002-2.66095-3.634095-7.828735-7.259247-15.661651-10.892121-23.490966-1.627899-3.508301-4.472839-4.806-8.160461-4.228211-3.791504.594086-3.821839 3.497406-3.80896 6.470642.043915 10.15213.016693 20.304596.016632 31.450104m-124.820114-5.273316c-.644059-1.162536-1.286835-2.325775-1.932358-3.487487-4.682068-8.426026-9.325897-16.873597-14.066544-25.266541-1.843216-3.263244-4.844848-4.550476-8.451812-3.768585-3.744812.811737-3.413788 3.984314-3.416794 6.820618-.011872 11.159057-.008621 22.318084-.002304 33.477142.001419 2.497681-.558655 5.213348.248825 7.423462.635986 1.740662 3.125839 4.106506 4.524505 3.940399 1.799164-.213715 3.945954-2.397583 4.801102-4.257721.822922-1.790039.196167-4.249023.196884-6.414093.002518-7.661072.000992-15.322143.000992-22.983215 3.950287 5.453827 6.98703 10.968231 10.061295 16.46167 2.677688 4.78479 4.924408 9.925567 8.310852 14.147583 1.552108 1.935089 5.37236 2.607269 8.183288 2.652374.894562.014435 2.615479-3.826721 2.654907-5.92807.246674-13.153046.083741-26.313263.152253-39.470581.017761-3.411255-.697998-6.095734-4.746216-6.103028-3.945343-.00711-4.917435 2.467835-4.871155 5.984437.111801 8.492706.063904 16.98822-.021225 25.481567-.006378.636597-.819565 1.265106-1.626495 1.290069m293.023575-31.332702c-5.83075-2.833008-8.404236-1.325104-8.486695 5.018158-.04541 3.497162-.008972 6.995392-.009033 10.493133-.000183 5.484894-.000122 10.969818-.000122 16.454712-5.353577-7.345459-9.48407-14.866485-13.687805-22.346313-1.624573-2.890595-2.936585-6.21341-5.287598-8.355194-1.768433-1.611145-5.119263-2.492127-7.470001-2.066223-1.333832.241668-2.532166 3.678619-2.959686 5.840942-.50705 2.564728-.119568 5.306335-.119477 7.971283.000336 10.659759.033844 21.319702-.018341 31.979217-.016205 3.305573 1.119568 5.66507 4.697937 5.748566 3.796265.088562 5.256104-2.216736 5.140259-5.815674-.074951-2.329376-.013184-4.663208-.013123-6.995025.000184-6.994538.000061-13.989106.000061-20.983643 5.666138 8.495941 10.381775 17.063019 15.158692 25.595764 1.131592 2.02121 2.048889 4.584137 3.820007 5.716736 2.126648 1.359894 5.159058 2.142822 7.603089 1.79538 1.137146-.161682 2.332397-3.51532 2.579528-5.534851.421814-3.446167.157593-6.981781.109681-10.478882-.152527-11.135895-.338196-22.271301-1.057373-34.038086m-437.634751 14.654632c.000923 9.989228.051331 19.978852-.020294 29.96756-.03093 4.31427 1.796547 6.543579 6.245308 6.48581 4.158028-.054017 8.340256.303833 12.471672-.024659 7.088608-.563629 13.498779-3.116668 17.252212-9.462249 6.199921-10.48172 6.5952-21.722138 1.158783-32.444123-4.798736-9.464355-14.082672-11.354919-23.886558-11.213623-13.221375.190613-13.221489.182007-13.221092 13.206543.000023.832428 0 1.664887-.000031 3.484741m246.072403-10.731323c-1.498657-1.590454-2.806396-4.26239-4.532043-4.566986-5.021088-.886352-10.285065-1.52417-15.315552-.980499-8.758301.946564-13.549286 8.457153-11.631165 17.028015 1.203858 5.379333 5.183686 8.363495 9.724213 10.693207 2.802612 1.438019 5.780151 2.532593 8.663849 3.815735 3.638 1.618805 5.444824 4.310058 4.565063 8.359741-.8255 3.800049-3.773437 4.929169-7.123413 4.865936-2.94989-.055603-5.879883-.855591-8.835632-1.017273-1.995483-.109161-4.020355.319183-6.032105.50708 1.174195 2.32666 1.789612 5.454285 3.671204 6.766876 2.110016 1.471894 5.346527 1.585907 8.127258 1.769135 2.947937.194214 4.940186 1.134918 4.926239 4.282471-.01419 3.180572-2.313842 4.187317-5.036743 4.364044-1.139862.073974-2.358795-.51532-3.444824-.304291-1.436157.279022-2.777191 1.047669-4.159088 1.605866.943085 1.596679 1.505676 3.925262 2.90155 4.65094 3.967621 2.062683 13.241455.046447 15.928284-2.990479 3.604034-4.073639 1.808838-8.021057-.676392-12.181671 7.661988-2.611572 10.741822-8.114472 10.154572-15.793305-.601227-7.861236-6.035309-11.337127-12.634278-13.769989-2.489563-.917816-5.453491-1.524475-7.176727-3.279113-1.832703-1.866028-3.595978-5.107514-3.228973-7.402924.281372-1.759674 3.807892-3.949432 6.092529-4.214935 3.334412-.387421 6.911346.529266 10.268463 1.360412 2.849365.705384 4.585419.386353 4.803711-3.567993m344.483978 44.050141c-5.068725-6.990052-10.014099-14.07483-15.270019-20.921113-1.960571-2.553741-2.115601-4.285705.015808-6.838195 4.578674-5.483033 8.848938-11.22757 13.12854-16.952423.710144-.949982 1.459167-2.683075 1.050781-3.436829-.440307-.8125-2.203369-1.179779-3.418335-1.25177-4.20813-.249298-7.154175 1.863647-9.547363 5.210998-3.958862 5.537323-8.112305 10.935547-12.998901 17.484955 0-6.671508-.093689-11.797699.031555-16.918579.089416-3.656372-1.355896-5.801178-5.134827-5.784546-3.878418.01706-4.979553 2.381012-4.955688 5.938538.089355 13.307831.097107 26.617065-.004761 39.924744-.028259 3.683837.866455 6.365844 5.07959 6.326812 4.19574-.038818 5.117431-2.742462 5.02301-6.413086-.146484-5.69107-.038696-11.388733-.038696-18.356201 1.912048 2.64801 2.972534 4.100647 4.016418 5.565155 3.665589 5.1427 7.174195 10.406342 11.032288 15.400116 3.519226 4.555176 8.659729 5.146637 11.9906 1.021424m-511.708129-9.809723c4.85527-.916657 7.396926 1.026703 7.909912 6.00827.161682 1.570099.822006 3.883514 1.930359 4.397003 2.349731 1.088532 5.134338 1.357666 7.770065 1.542145.293442.020538 1.451889-2.897003 1.070328-4.086731-4.668137-14.554504-9.389145-29.098419-14.573136-43.473175-.664276-1.84198-4.040298-3.779266-6.130752-3.747437-2.332291.035523-6.039826 1.75647-6.720826 3.627533-5.282608 14.514435-9.997009 29.236298-14.84085 43.909272-1.032288 3.127014.845153 4.900817 3.480697 4.274749 2.38385-.566253 5.016892-2.262146 6.405869-4.251709 1.52008-2.177368 1.739425-5.262756 2.598022-8.19992zm290.385162-26.266175c-.949768-2.829406-1.925812-5.650329-2.842407-8.490448-1.052704-3.261749-3.273957-4.847076-6.682465-4.900879-3.50592-.055328-6.105865 1.136811-7.291351 4.723389-4.683869 14.170654-9.46341 28.309815-14.096222 42.49704-1.193085 3.653656.295379 5.294495 4.122223 5.065552 3.81015-.227936 5.334076-2.616913 6.239563-6.013214.606262-2.274109 1.660736-6.06424 2.923797-6.240235 5.049256-.703613 10.391022-.896149 15.331696.130951 1.579101.328247 2.249878 5.014984 3.341949 7.7052.248566.612305.388062 1.620026.803742 1.756195 2.64685.867371 5.357025 1.541657 8.046295 2.279541.273804-2.039306 1.254181-4.295654.705353-6.082214-3.261902-10.618072-6.877686-21.127441-10.602173-32.430878m111.763336 30.429718c-2.768066 0-5.536194 0-8.645386 0 0-1.538452.000122-2.50177 0-3.465088-.001709-11.634063-.009582-23.268096-.001526-34.90216.002381-3.396485-1.562561-5.330933-5.045654-5.450257-3.370788-.115417-5.509888 1.387909-5.525146 4.910248-.061036 14.12677-.050171 28.253998-.008667 42.380921.009338 3.182495 1.744873 4.984222 4.953003 5.009521 7.810913.061585 15.638061.283356 23.422363-.175232 1.76947-.104217 3.391723-2.706268 5.081726-4.15863-1.758057-1.381348-3.331604-3.416138-5.321045-3.977966-2.463318-.695588-5.271545-.169587-8.909668-.171357m47.965149-25.690277c-.000671-3.995575-.093384-7.993896.02478-11.985962.111695-3.774383-1.160827-6.090179-5.318908-6.163208-4.317444-.075866-5.854981 2.139862-5.830567 6.219208.079834 13.318115.078491 26.637299.001709 39.955475-.023682 4.10968 1.605347 6.265137 5.887146 6.170196 4.174927-.092681 5.306397-2.487701 5.265259-6.228729-.098877-8.988952-.030457-17.979736-.029419-27.96698m-348.516998 3.992981c.000366 8.151032.07843 16.303131-.033753 24.452606-.051239 3.724305 1.528504 5.623871 5.24466 5.70813 3.8349.086914 5.868774-1.558929 5.848053-5.640075-.069306-13.640168-.073151-27.281128.003051-40.921204.022614-4.048126-1.903198-5.769958-5.78067-5.699127-3.697418.067505-5.398834 1.87149-5.31073 5.630432.120758 5.153931.029663 10.312866.029389 16.469238z" fill="#0a0b0a"/><g fill="#ffcb00"><path d="m239.25206 221.663361c-.001968-15.277344-.001968-30.090439-.001968-45.144394-1.437546-.231766-2.539933-.563752-3.642609-.564759-28.995346-.026352-57.990769-.053238-86.986008.0085-7.087921.015106-12.115875 3.983154-13.960235 10.596633-1.685883 6.045136.809265 12.901795 6.503128 15.814515 2.663589 1.362548 6.032684 1.753387 9.103424 1.841827 12.978561.373795 25.990722.036407 38.940674.802719 10.186615.602814 17.751129 9.81752 17.427261 19.73169-.338013 10.347106-8.92511 19.201736-19.290741 19.165893-16.303986-.056366-32.732681.609543-48.879578-1.141815-23.424972-2.540726-42.271698-25.317215-43.739708-48.911911-1.969413-31.65361 21.246277-52.191162 42.366448-56.275742 4.546158-.879211 9.244018-1.334777 13.874878-1.355911 27.161773-.124054 54.324386-.061294 81.486725-.061539 1.97319-.00003 3.94638-.000015 5.788131-.000015 4.463974-14.9254-4.997207-28.212143-20.029297-28.283623-29.827911-.141838-59.657028-.007454-89.485458-.070404-13.075111-.027595-21.675331-7.907272-21.735504-19.661064-.056114-10.960205 7.745567-19.841568 18.795494-19.933601 32.491692-.270638 65.021812-.977944 97.471703.232849 31.111557 1.160866 55.465271 27.943573 55.677764 59.132538.216858 31.82679.085053 63.656166.049256 95.484337-.01297 11.508804-7.500488 20.138504-17.911255 20.868988-11.218002.787124-19.651825-6.437271-21.406906-18.348618-.169403-1.149643-.277237-2.30835-.415619-3.927093z"/><path d="m414 204.2948c18.658142.16214 36.819763.158813 54.973114.545578 11.509979.245254 19.297546 8.650818 19.134827 19.938034-.154358 10.708008-8.546265 19.146484-19.582947 19.174789-37.332886.095749-74.667999.253784-111.998657-.050003-23.251099-.189209-44.255402-18.232254-47.322968-39.765793-3.790192-26.60617 11.803589-49.838729 38.277985-56.095932 32.041992-7.57312 64.199676-14.656601 96.305053-21.962005 1.294892-.294647 2.606476-.587364 3.841553-1.060395 4.258148-1.630813 6.414582-4.761825 5.75177-9.310722-.677337-4.648659-3.383728-7.639343-8.300171-7.776016-6.328582-.175911-12.664734-.094421-18.99765-.095749-30.166565-.006363-60.333191.027916-90.499664-.019386-11.407013-.017884-19.740845-6.091561-21.582886-15.500183-2.586212-13.209702 6.452057-24.170601 20.231903-24.212891 29.332978-.090042 58.666626-.095566 87.999512.007187 9.646179.03379 19.338531-.005524 28.926575.884552 21.849884 2.028366 40.387634 21.673401 41.760528 43.584137 1.63797 26.14122-14.537567 46.614868-40.867554 52.352463-31.682464 6.903961-63.291656 14.144256-94.931976 21.241592-4.553467 1.021393-8.665069 3.241257-8.703552 8.213516-.021973 2.836365 1.952362 6.22638 4.053955 8.353028 1.417053 1.43396 4.623291 1.477401 7.033203 1.49237 17.99881.111771 35.998566.061203 54.498047.061829z"/><path d="m625.541748 68.287949c18.019165 1.978378 34.07019 7.572425 48.152039 18.649414 41.893249 32.95401 45.301513 94.926056 7.049621 132.061126-16.770019 16.280365-36.948913 24.70514-60.297424 24.929001-25.994629.249222-51.993652.119919-77.990357.03035-9.246215-.03186-17.517334-6.747101-19.273193-15.224854-1.908447-9.213989 2.570862-18.651779 11.190796-22.275573 3.096619-1.301789 6.788086-1.619202 10.212646-1.640412 22.329957-.138427 44.661194-.048813 66.991944-.082122 11.398681-.016999 22.411621-1.117203 32.701111-7.12172 15.586914-9.095901 25.034179-28.482773 23.152404-46.492523-2.506347-23.986732-23.936706-44.199638-49.523742-43.395859-18.297302.574776-36.627197.111687-55.519654.111687-.098449 2.100967-.249267 3.862709-.252746 5.624748-.028137 14.331581.095093 28.664719-.079834 42.994309-.122925 10.074005-6.946472 17.61235-16.928833 19.251526-8.643433 1.419342-17.735596-3.909928-21.022766-12.624955-.856385-2.270462-1.172302-4.866821-1.181763-7.315643-.086731-22.497086-.138672-44.99511-.016235-67.491859.064819-11.903649 8.228454-20.110939 20.191589-20.1493 27.328919-.087647 54.658569.06369 82.444397.162659z"/></g><path d="m374.922455 366.979797c.000061-10.648895.027283-20.801361-.016632-30.953491-.012879-2.973236.017456-5.876556 3.80896-6.470642 3.687622-.577789 6.532562.71991 8.160461 4.228211 3.632874 7.829315 7.258026 15.662231 10.892121 23.490966.271362.584595.58905 1.147705 1.371002 2.66095 1.216736-2.590118 2.141052-4.537994 3.048797-6.493622 3.005188-6.474365 6.03302-12.938507 8.994934-19.432648 1.703492-3.734893 4.652985-5.063018 8.521668-4.466033 4.118866.63565 3.916534 3.878936 3.916931 6.926544.001587 12.981659-.02771 25.963409.017395 38.944916.011749 3.379516-.790985 6.110748-4.753326 6.197143-4.247162.092621-5.105561-2.646881-5.055298-6.316925.121826-8.899628.039612-17.802093-.897614-26.97995-1.658172 3.490234-3.180816 7.053406-5.010162 10.451477-2.104431 3.909149-2.614594 9.558167-8.721253 9.650269-6.154083.092834-6.768585-5.520478-8.85971-9.442566-1.759461-3.300049-3.225342-6.756592-6.039093-9.968201 0 5.485474.004303 10.970978-.001435 16.456451-.00418 3.994202.419159 8.06363-.243835 11.946595-.276337 1.618499-2.882599 3.94046-4.421875 3.934662-1.563538-.005921-4.084229-2.263153-4.468414-3.930237-.728943-3.163147-.231598-6.608887-.243622-10.433869z" fill="#f8f8f8"/><path d="m250.286743 362.506775c.622528-.328644 1.435715-.957153 1.442093-1.59375.085129-8.493347.133026-16.988861.021225-25.481567-.04628-3.516602.925812-5.991547 4.871155-5.984437 4.048218.007294 4.763977 2.691773 4.746216 6.103028-.068512 13.157318.094421 26.317535-.152253 39.470581-.039428 2.101349-1.760345 5.942505-2.654907 5.92807-2.810928-.045105-6.63118-.717285-8.183288-2.652374-3.386444-4.222016-5.633164-9.362793-8.310852-14.147583-3.074265-5.493439-6.111008-11.007843-10.061295-16.46167 0 7.661072.001526 15.322143-.000992 22.983215-.000717 2.16507.626038 4.624054-.196884 6.414093-.855148 1.860138-3.001938 4.044006-4.801102 4.257721-1.398666.166107-3.888519-2.199737-4.524505-3.940399-.80748-2.210114-.247406-4.925781-.248825-7.423462-.006317-11.159058-.009568-22.318085.002304-33.477142.003006-2.836304-.328018-6.008881 3.416794-6.820618 3.606964-.781891 6.608596.505341 8.451812 3.768585 4.740647 8.392944 9.384476 16.840515 14.066544 25.266541.645523 1.161712 1.288299 2.324951 2.11676 3.791168z" fill="#f9f9f9"/><path d="m543.399048 331.185974c.446045 11.451203.631714 22.586609.784241 33.722504.047912 3.497101.312133 7.032715-.109681 10.478882-.247131 2.019531-1.442382 5.373169-2.579528 5.534851-2.444031.347442-5.476441-.435486-7.603089-1.79538-1.771118-1.132599-2.688415-3.695526-3.820007-5.716736-4.776917-8.532745-9.492554-17.099823-15.158692-25.595764 0 6.994537.000123 13.989105-.000061 20.983643-.000061 2.331817-.061828 4.665649.013123 6.995025.115845 3.598938-1.343994 5.904236-5.140259 5.815674-3.578369-.083496-4.714142-2.442993-4.697937-5.748566.052185-10.659515.018677-21.319458.018341-31.979217-.000091-2.664948-.387573-5.406555.119477-7.971283.42752-2.162323 1.625854-5.599274 2.959686-5.840942 2.350738-.425904 5.701568.455078 7.470001 2.066223 2.351013 2.141784 3.663025 5.464599 5.287598 8.355194 4.203735 7.479828 8.334228 15.000854 13.687805 22.346313 0-5.484894-.000061-10.969818.000122-16.454712.000061-3.497741-.036377-6.995971.009033-10.493133.082459-6.343262 2.655945-7.851166 8.759827-4.702576z" fill="#f9f9f9"/><path d="m105.49118 345.031311c.000016-1.326141.000039-2.1586.000016-2.991028-.000397-13.024536-.000283-13.01593 13.221092-13.206543 9.803886-.141296 19.087822 1.749268 23.886558 11.213623 5.436417 10.721985 5.041138 21.962403-1.158783 32.444123-3.753433 6.345581-10.163604 8.89862-17.252212 9.462249-4.131416.328492-8.313644-.029358-12.471672.024659-4.448761.057769-6.276238-2.17154-6.245308-6.48581.071625-9.988708.021217-19.978332.020309-30.461273m29.066254-.820007c-4.175201-7.71579-11.170959-7.760956-18.850357-7.033356v36.313477c11.044891 2.139099 18.487976-1.371247 19.809586-10.406098.862609-5.897095-.352448-12.098114-.959229-18.874023z" fill="#fbfbfb"/><path d="m351.627991 335.161072c-.282715 3.586975-2.018769 3.906006-4.868134 3.200622-3.357117-.831146-6.934051-1.747833-10.268463-1.360412-2.284637.265503-5.811157 2.455261-6.092529 4.214935-.367005 2.29541 1.39627 5.536896 3.228973 7.402924 1.723236 1.754638 4.687164 2.361297 7.176727 3.279113 6.598969 2.432862 12.033051 5.908753 12.634278 13.769989.58725 7.678833-2.492584 13.181733-10.154572 15.793305 2.48523 4.160614 4.280426 8.108032.676392 12.181671-2.686829 3.036926-11.960663 5.053162-15.928284 2.990479-1.395874-.725678-1.958465-3.054261-2.90155-4.65094 1.381897-.558197 2.722931-1.326844 4.159088-1.605866 1.086029-.211029 2.304962.378265 3.444824.304291 2.722901-.176727 5.022553-1.183472 5.036743-4.364044.013947-3.147553-1.978302-4.088257-4.926239-4.282471-2.780731-.183228-6.017242-.297241-8.127258-1.769135-1.881592-1.312591-2.497009-4.440216-3.671204-6.766876 2.01175-.187897 4.036622-.616241 6.032105-.50708 2.955749.161682 5.885742.96167 8.835632 1.017273 3.349976.063233 6.297913-1.065887 7.123413-4.865936.879761-4.049683-.927063-6.740936-4.565063-8.359741-2.883698-1.283142-5.861237-2.377716-8.663849-3.815735-4.540527-2.329712-8.520355-5.313874-9.724213-10.693207-1.918121-8.570862 2.872864-16.081451 11.631165-17.028015 5.030487-.543671 10.294464.094147 15.315552.980499 1.725647.304596 3.033386 2.976532 4.596466 4.934357z" fill="#f8f8f8"/><path d="m696.105835 379.22937c-3.38916 3.739685-8.529663 3.148224-12.048889-1.406952-3.858093-4.993774-7.366699-10.257416-11.032288-15.400116-1.043884-1.464508-2.10437-2.917145-4.016418-5.565155 0 6.967468-.107788 12.665131.038696 18.356201.094421 3.670624-.82727 6.374268-5.02301 6.413086-4.213135.039032-5.107849-2.642975-5.07959-6.326812.101868-13.307679.094116-26.616913.004761-39.924744-.023865-3.557526 1.07727-5.921478 4.955688-5.938538 3.778931-.016632 5.224243 2.128174 5.134827 5.784546-.125244 5.12088-.031555 10.247071-.031555 16.918579 4.886596-6.549408 9.040039-11.947632 12.998901-17.484955 2.393188-3.347351 5.339233-5.460296 9.547363-5.210998 1.214966.071991 2.978028.43927 3.418335 1.25177.408386.753754-.340637 2.486847-1.050781 3.436829-4.279602 5.724853-8.549866 11.46939-13.12854 16.952423-2.131409 2.55249-1.976379 4.284454-.015808 6.838195 5.25592 6.846283 10.201294 13.931061 15.328308 21.306641z" fill="#fafafa"/><path d="m183.868561 369.034119c-3.786087 0-7.101319 0-10.629456 0-.858597 2.937164-1.077942 6.022552-2.598022 8.19992-1.388977 1.989563-4.022019 3.685456-6.405869 4.251709-2.635544.626068-4.512985-1.147735-3.480697-4.274749 4.843841-14.672974 9.558242-29.394837 14.84085-43.909272.681-1.871063 4.388535-3.59201 6.720826-3.627533 2.090454-.031829 5.466476 1.905457 6.130752 3.747437 5.183991 14.374756 9.904999 28.918671 14.573136 43.473175.381561 1.189728-.776886 4.107269-1.070328 4.086731-2.635727-.184479-5.420334-.453613-7.770065-1.542145-1.108353-.513489-1.768677-2.826904-1.930359-4.397003-.512986-4.981567-3.054642-6.924927-8.380768-6.00827m1.33583-18.783936c-.996933-3.587768-1.99385-7.175568-2.990768-10.763336-.293594.059082-.587204.118133-.880814.177215-1.930069 7.048676-3.860122 14.097352-5.834686 21.308503h12.719376c-.993683-3.597657-1.870911-6.773743-3.013108-10.722382z" fill="#f8f8f8"/><path d="m474.838379 343.146729c3.610687 10.924652 7.226471 21.434021 10.488373 32.052093.548828 1.78656-.431549 4.042908-.705353 6.082214-2.68927-.737884-5.399445-1.41217-8.046295-2.279541-.41568-.136169-.555176-1.14389-.803742-1.756195-1.092071-2.690216-1.762848-7.376953-3.341949-7.7052-4.940674-1.0271-10.28244-.834564-15.331696-.130951-1.263061.175995-2.317535 3.966126-2.923797 6.240235-.905487 3.396301-2.429413 5.785278-6.239563 6.013214-3.826844.228943-5.315308-1.411896-4.122223-5.065552 4.632812-14.187225 9.412353-28.326386 14.096222-42.49704 1.185486-3.586578 3.785431-4.778717 7.291351-4.723389 3.408508.053803 5.629761 1.63913 6.682465 4.900879.916595 2.840119 1.892639 5.661042 2.956207 8.869233m-15.792999 14.958892c.634704 1.070954 1.18045 2.988892 1.919525 3.066559 3.234436.339844 6.524872.146301 10.273041.146301-2.216462-7.777313-4.236939-14.866973-6.56073-23.020965-2.042084 7.123108-3.73584 13.031158-5.631836 19.808105z" fill="#f6f6f6"/><path d="m586.977356 373.197662c3.148682.00177 5.956909-.524231 8.420227.171357 1.989441.561828 3.562988 2.596618 5.321045 3.977966-1.690003 1.452362-3.312256 4.054413-5.081726 4.15863-7.784302.458588-15.61145.236817-23.422363.175232-3.20813-.025299-4.943665-1.827026-4.953003-5.009521-.041504-14.126923-.052369-28.254151.008667-42.380921.015258-3.522339 2.154358-5.025665 5.525146-4.910248 3.483093.119324 5.048035 2.053772 5.045654 5.450257-.008056 11.634064-.000183 23.268097.001526 34.90216.000122.963318 0 1.926636 0 3.465088z" fill="#efefef"/><path d="m634.453003 348.005981c-.000977 9.488648-.069397 18.479432.02948 27.468384.041138 3.741028-1.090332 6.136048-5.265259 6.228729-4.281799.094941-5.910828-2.060516-5.887146-6.170196.076782-13.318176.078125-26.63736-.001709-39.955475-.024414-4.079346 1.513123-6.295074 5.830567-6.219208 4.158081.073029 5.430603 2.388825 5.318908 6.163208-.118164 3.992066-.025451 7.990387-.024841 12.484558z" fill="#f4f4f4"/><path d="m285.936066 351.000549c.000274-5.656555.091369-10.81549-.029389-15.969421-.088104-3.758942 1.613312-5.562927 5.31073-5.630432 3.877472-.070831 5.803284 1.651001 5.78067 5.699127-.076202 13.640076-.072357 27.281036-.003051 40.921204.020721 4.081146-2.013153 5.726989-5.848053 5.640075-3.716156-.084259-5.295899-1.983825-5.24466-5.70813.112183-8.149475.034119-16.301574.033753-24.952423z" fill="#fbfbfb"/><path d="m134.718643 344.566833c.445572 6.42038 1.660629 12.621399.79802 18.518494-1.32161 9.034851-8.764695 12.545197-19.809586 10.406098 0-12.002198 0-24.048859 0-36.313477 7.679398-.7276 14.675156-.682434 19.011566 7.388885z" fill="#101211"/><path d="m185.336884 350.636475c1.009704 3.562347 1.886932 6.738433 2.880615 10.33609-4.210205 0-8.069657 0-12.719376 0 1.974564-7.211151 3.904617-14.259827 5.834686-21.308503.29361-.059082.58722-.118133.880814-.177215.996918 3.587768 1.993835 7.175568 3.123261 11.149628z" fill="#121413"/><path d="m459.146484 357.671204c1.794892-6.34253 3.488648-12.25058 5.530732-19.373688 2.323791 8.153992 4.344268 15.243652 6.56073 23.020965-3.748169 0-7.038605.193543-10.273041-.146301-.739075-.077667-1.284821-1.995605-1.818421-3.500976z" fill="#121413"/></svg>